<svg width="276.000000pt" height="168.000000pt" viewBox="0 0 276.000000 168.000000" xmlns="http://www.w3.org/2000/svg">
  <g transform="translate(0.000000,168.000000) scale(0.100000,-0.100000)" fill="none" stroke="none">
    <path d="M0 840 l0 -840 1380 0 1380 0 0 840 0 840 -1380 0 -1380 0 0 -840z
m1336 704 c19 -9 42 -29 51 -44 l16 -28 46 -7 c137 -19 271 -73 317 -128 l24
-29 0 -241 0 -242 -19 -32 c-62 -101 -354 -171 -602 -144 -108 11 -235 43
-254 63 -10 11 -11 11 95 -17 249 -68 667 -13 745 97 20 30 21 118 1 118 -8 0
-18 -5 -21 -10 -10 -16 -96 -57 -159 -75 -40 -12 -60 -23 -68 -40 -21 -47 -82
-57 -125 -21 l-28 23 -135 6 -135 5 -90 27 c-49 14 -112 39 -138 55 -70 43
-84 19 -52 -90 l7 -25 -18 25 -19 25 -3 235 -3 235 17 32 c32 61 157 120 303
144 l71 12 15 24 c38 57 101 75 161 47z m-1156 -1184 c0 -73 -4 -120 -10 -120
-6 0 -10 47 -10 120 0 73 4 120 10 120 6 0 10 -47 10 -120z m390 75 c0 -28 4
-45 12 -45 l12 0 -12 -12 c-7 -7 -12 -39 -12 -75 0 -35 -4 -63 -10 -63 -6 0
-10 47 -10 120 0 73 4 120 10 120 6 0 10 -20 10 -45z m204 24 c-3 -5 -10 -7
-15 -3 -5 3 -7 10 -3 15 3 5 10 7 15 3 5 -3 7 -10 3 -15z m253 15 c-3 -3 -12
-4 -19 -1 -8 3 -5 6 6 6 11 1 17 -2 13 -5z m-47 -24 c-19 -35 55 -150 96 -150
8 0 14 -5 14 -12 0 -6 8 -21 18 -32 l17 -21 -22 19 c-12 10 -29 16 -37 13 -10
-4 -13 -1 -9 9 6 17 -52 84 -73 84 -18 0 -29 77 -14 95 18 21 23 18 10 -5z
m81 3 l14 -18 -17 14 c-17 13 -22 21 -14 21 2 0 10 -8 17 -17z m458 -7 c59
-54 4 -136 -90 -136 l-29 0 0 -50 0 -50 -15 0 -15 0 0 131 0 131 64 -4 c45 -3
71 -10 85 -22z m769 13 c-2 -6 -8 -10 -13 -10 -5 0 -11 4 -13 10 -2 6 4 11 13
11 9 0 15 -5 13 -11z m-250 -70 l27 -2 -27 -4 -28 -4 0 -75 0 -75 23 -9 22 -9
-20 0 c-40 -1 -48 15 -54 98 -4 45 -3 81 1 81 5 0 8 11 8 23 0 37 15 43 18 8
l3 -31 27 -1z m-1571 -11 c28 -26 31 -78 6 -105 -10 -10 -15 -14 -10 -9 32 42
0 126 -48 126 -48 0 -80 -84 -47 -126 4 -5 -1 -1 -10 9 -64 69 41 169 109 105z
m207 6 c11 -11 16 -35 16 -80 0 -88 -18 -81 -22 8 l-3 73 -30 6 -30 7 27 1
c15 0 34 -6 42 -15z m106 -65 c0 -110 -24 -106 -28 4 l-3 77 16 0 15 0 0 -81z
m-510 68 c0 -2 -10 -12 -22 -23 l-23 -19 19 23 c18 21 26 27 26 19z m1440 -17
l20 -20 0 -71 0 -71 -12 10 c-8 6 -12 31 -11 64 2 73 -3 86 -40 97 l-32 9 28
1 c15 1 36 -8 47 -19z m163 13 c-7 -2 -21 -2 -30 0 -10 3 -4 5 12 5 17 0 24
-2 18 -5z m269 -100 c-5 -105 -22 -90 -22 19 l0 92 13 -19 c8 -13 11 -45 9
-92z m68 97 c0 -5 -7 -10 -16 -10 -8 0 -12 5 -9 10 3 6 10 10 16 10 5 0 9 -4
9 -10z m80 -80 l0 -90 -15 0 -15 0 0 90 0 90 15 0 15 0 0 -90z m163 83 c-7 -2
-21 -2 -30 0 -10 3 -4 5 12 5 17 0 24 -2 18 -5z m190 0 c-7 -2 -21 -2 -30 0
-10 3 -4 5 12 5 17 0 24 -2 18 -5z m-1016 -10 c-4 -3 -10 -3 -14 0 -3 4 0 7 7
7 7 0 10 -3 7 -7z m188 -20 l0 -28 40 -18 c56 -27 64 -41 42 -71 l-13 -18 1
29 0 28 -42 19 c-46 21 -62 48 -43 71 16 19 16 20 15 -12z m577 15 c-59 -59
16 -174 91 -137 l22 10 -19 -15 c-47 -38 -122 -1 -132 64 l-6 35 22 28 c12 15
24 27 28 27 3 0 1 -5 -6 -12z m113 -35 c3 -13 3 -23 -2 -23 -4 0 -13 16 -19
36 l-12 36 13 -14 c7 -7 16 -23 20 -35z m80 20 l0 -28 40 -18 c56 -27 64 -41
42 -71 l-13 -18 1 29 0 28 -42 19 c-46 21 -62 48 -43 71 16 19 16 20 15 -12z
m-1478 -15 c-3 -8 -6 -5 -6 6 -1 11 2 17 5 13 3 -3 4 -12 1 -19z m-827 -94 c0
-3 -15 14 -34 38 -18 24 -31 47 -29 51 4 7 63 -76 63 -89z m665 76 c-10 -31
20 -70 53 -71 15 0 21 -3 14 -6 -23 -9 -61 7 -78 31 l-15 25 11 20 c14 27 23
27 15 1z m712 -27 c-4 -3 -10 -3 -14 0 -3 4 0 7 7 7 7 0 10 -3 7 -7z m-17 -75
l25 -7 -29 2 c-34 2 -53 26 -41 53 l8 19 6 -30 c4 -20 14 -31 31 -37z m-1207
25 c-7 -2 -21 -2 -30 0 -10 3 -4 5 12 5 17 0 24 -2 18 -5z m1374 -20 c-4 -3
-10 -3 -14 0 -3 4 0 7 7 7 7 0 10 -3 7 -7z m832 -9 c10 -9 -55 -3 -69 6 -10 6
-2 7 25 3 22 -3 42 -7 44 -9z m-776 -1 c-7 -2 -21 -2 -30 0 -10 3 -4 5 12 5
17 0 24 -2 18 -5z" />
    <path d="M1209 1512 l-31 -28 -5 -47 -6 -46 37 -37 37 -37 46 6 47 5 28 31
c91 102 -51 244 -153 153z" />
    <path d="M1085 1443 c-466 -65 -336 -343 161 -343 108 0 154 -12 99 -26 -97
-24 -411 37 -497 97 -14 11 -34 19 -43 19 l-18 0 5 -50 c11 -107 164 -174 429
-187 l127 -6 7 23 7 23 9 -14 c5 -8 9 -55 9 -105 0 -56 4 -94 12 -102 18 -18
73 -14 91 6 l17 19 0 156 0 156 18 5 c9 3 37 10 62 16 118 31 190 87 190 149
l0 34 -35 33 c-40 38 -110 66 -220 89 -93 19 -101 17 -109 -29 -26 -140 -256
-122 -256 20 0 25 -3 25 -65 17z" />
    <path d="M1705 1165 c-22 -13 -72 -35 -112 -47 l-73 -23 0 -59 0 -59 42 7
c121 20 208 87 208 162 0 51 -8 54 -65 19z" />
    <path d="M790 1006 c0 -112 153 -182 423 -193 l137 -6 0 62 0 61 -72 0 c-153
0 -330 40 -424 95 -58 34 -64 32 -64 -19z" />
    <path d="M1685 1014 c-33 -18 -84 -39 -112 -45 l-53 -12 0 -64 c0 -34 4 -63 8
-63 49 0 184 60 218 97 l24 26 0 48 c0 58 -3 59 -85 13z" />
    <path d="M1400 390 l0 -60 44 0 45 0 15 22 c37 53 10 98 -60 98 l-44 0 0 -60z" />
  </g>
  <g transform="translate(0.000000,168.000000) scale(0.100000,-0.100000)" fill="#cbad85" stroke="none">
    <path d="M1213 1550 c-18 -10 -39 -30 -48 -43 l-15 -24 -71 -12 c-141 -23
-261 -78 -300 -138 l-19 -28 0 -238 0 -239 16 -34 c16 -33 37 -44 49 -24 3 5
-1 23 -10 39 -8 17 -15 44 -15 60 l0 30 48 -29 c26 -16 88 -41 137 -55 l90
-27 135 -5 135 -6 28 -23 c46 -38 123 -27 145 21 8 17 28 28 69 40 63 19 128
49 156 73 l17 15 0 -39 c0 -152 -429 -243 -744 -158 -34 9 -74 19 -89 22 l-29
5 4 -19 c4 -25 115 -59 243 -74 257 -31 562 36 632 140 l23 33 0 253 0 252
-24 29 c-46 55 -180 109 -317 128 l-46 7 -16 28 c-34 56 -125 77 -184 40z
m116 -34 c83 -43 55 -167 -41 -183 l-37 -6 -37 37 -37 37 6 37 c12 72 83 110
146 78z m-189 -98 c0 -154 238 -168 278 -17 l9 34 34 -3 c69 -6 192 -46 237
-76 120 -80 54 -171 -165 -226 l-43 -11 0 -156 0 -156 -17 -19 c-48 -54 -83
-15 -83 93 0 112 -24 164 -45 98 l-7 -22 -117 6 c-245 14 -405 81 -418 176 -6
46 -2 49 35 22 122 -84 567 -140 539 -67 l-6 16 -115 0 c-296 0 -525 113 -432
213 43 46 163 95 271 110 17 2 33 5 38 6 4 0 7 -9 7 -21z m603 -327 c-20 -28
-128 -86 -180 -96 l-33 -7 0 49 0 48 73 23 c40 12 90 33 112 47 l40 24 3 -31
c2 -19 -4 -41 -15 -57z m-797 -121 c75 -26 227 -50 322 -50 l72 0 0 -51 0 -52
-127 6 c-250 11 -413 84 -413 183 l0 35 43 -26 c24 -13 70 -34 103 -45z m799
-23 c-19 -29 -92 -70 -162 -91 l-53 -15 0 53 0 53 53 12 c28 6 79 26 112 44
l60 32 3 -32 c2 -18 -4 -43 -13 -56z" />
    <path d="M150 360 l0 -130 20 0 20 0 0 47 0 46 21 -19 c11 -10 28 -31 37 -46
10 -18 25 -28 39 -28 l24 0 -35 52 -35 51 30 36 30 36 -18 4 c-11 2 -30 -11
-49 -33 -42 -49 -44 -47 -44 39 l0 75 -20 0 -20 0 0 -130z" />
    <path d="M540 360 l0 -130 20 0 20 0 0 64 c0 70 12 90 52 84 l23 -3 3 -72 3
-73 19 0 20 0 0 74 0 75 -17 16 c-12 13 -28 16 -60 12 l-43 -5 0 44 0 44 -20
0 -20 0 0 -130z" />
    <path d="M744 475 c-4 -9 -2 -21 4 -27 15 -15 44 -1 40 19 -4 23 -36 29 -44 8z" />
    <path d="M971 474 l-23 -16 4 -42 5 -41 -24 -28 c-60 -73 27 -149 116 -102
l29 14 12 -14 c7 -8 24 -15 38 -15 l26 0 -28 29 -28 29 11 20 c15 29 14 62 -3
62 -7 0 -16 -14 -20 -32 l-6 -32 -36 35 c-47 45 -65 80 -53 102 12 21 32 22
49 2 16 -19 40 -19 40 -1 0 39 -69 57 -109 30z m49 -159 l33 -34 -26 -12 c-45
-20 -83 13 -66 59 11 30 19 28 59 -13z" />
    <path d="M2254 475 c-9 -23 4 -47 23 -43 22 4 30 38 11 49 -19 13 -28 11 -34
-6z" />
    <path d="M1360 341 l0 -141 25 0 25 0 0 50 0 50 30 0 c162 0 157 170 -6 178
l-74 4 0 -141z m134 83 c34 -33 3 -84 -50 -84 l-34 0 0 50 0 50 34 0 c19 0 42
-7 50 -16z" />
    <path d="M1987 453 c-4 -3 -7 -17 -7 -29 0 -14 -8 -25 -20 -29 -23 -7 -27 -25
-6 -25 10 0 15 -20 18 -76 4 -83 13 -96 63 -92 34 3 43 33 10 33 l-20 0 -3 68
-3 67 26 0 c16 0 25 6 25 15 0 9 -9 15 -25 15 l-25 0 0 30 c0 28 -17 40 -33
23z" />
    <path d="M352 387 c-78 -83 43 -213 123 -132 l25 24 0 44 c0 80 -94 121 -148
64z m96 -19 c32 -32 8 -108 -33 -108 -31 0 -45 19 -45 60 0 41 14 60 45 60 12
0 26 -5 33 -12z" />
    <path d="M742 323 l3 -88 23 -3 22 -3 0 90 0 91 -25 0 -26 0 3 -87z" />
    <path d="M1612 389 c-13 -5 -22 -15 -19 -21 4 -13 17 -14 53 -3 23 7 58 -19
51 -39 -2 -6 -19 -13 -38 -17 -96 -16 -116 -109 -24 -109 17 0 36 5 43 12 l12
12 12 -12 c29 -29 38 -13 38 68 l0 80 -20 20 c-21 21 -68 25 -108 9z m84 -114
c9 -23 -16 -46 -45 -43 -35 4 -36 39 -1 49 38 11 40 10 46 -6z" />
    <path d="M1802 384 c-42 -29 -28 -72 33 -100 22 -11 40 -26 40 -34 l0 -15 -47
2 -48 3 0 -15 c0 -8 14 -17 35 -21 104 -19 146 69 53 112 -56 25 -57 49 -3 50
58 1 62 3 41 19 -26 19 -76 19 -104 -1z" />
    <path d="M2110 300 l0 -100 20 0 20 0 0 64 c0 69 14 96 51 96 12 0 19 7 19 20
0 25 -26 26 -52 4 l-18 -17 -6 17 c-3 9 -12 16 -20 16 l-14 0 0 -100z" />
    <path d="M2250 300 l0 -100 25 0 25 0 0 100 0 100 -25 0 -25 0 0 -100z" />
    <path d="M2368 370 l-30 -31 5 -47 c10 -87 167 -140 167 -57 0 18 -4 18 -46 3
l-33 -12 -21 19 c-11 10 -20 26 -20 37 l0 18 66 0 67 0 -7 33 c-14 71 -94 91
-148 37z m102 -19 c15 -30 14 -31 -35 -31 -30 0 -45 4 -45 13 0 37 62 51 80
18z" />
    <path d="M2572 384 c-42 -29 -28 -72 33 -100 22 -11 40 -26 40 -34 l0 -15 -47
2 c-49 3 -69 -17 -32 -31 106 -41 171 63 69 110 -22 11 -40 26 -40 34 0 11 12
15 40 16 58 1 62 3 41 19 -26 19 -76 19 -104 -1z" />
  </g>
</svg>